<?xml version="1.0" standalone="no"?>
<!DOCTYPE svg PUBLIC "-//W3C//DTD SVG 20010904//EN"
 "http://www.w3.org/TR/2001/REC-SVG-20010904/DTD/svg10.dtd">
<svg version="1.0" xmlns="http://www.w3.org/2000/svg"
 width="310.000000pt" height="310.000000pt" viewBox="0 0 310.000000 310.000000"
 preserveAspectRatio="xMidYMid meet">
<metadata>
Created by potrace 1.14, written by Peter Selinger 2001-2017
</metadata>
<g transform="translate(0.000000,310.000000) scale(0.100000,-0.100000)"
fill="#000000" stroke="none">
<path d="M1310 3080 c-365 -67 -634 -211 -837 -450 -250 -292 -363 -632 -363
-1090 0 -274 44 -538 120 -725 99 -240 240 -425 433 -563 171 -124 351 -193
615 -237 147 -24 443 -17 557 13 220 60 379 198 485 425 22 46 45 108 52 136
6 28 14 51 17 51 3 0 44 -80 90 -178 197 -413 203 -423 225 -420 l21 3 5 690
5 690 27 47 c35 59 100 116 173 152 43 21 54 30 44 37 -8 5 -164 9 -348 8
l-335 0 -25 52 c-36 73 -112 146 -190 183 -53 25 -82 32 -147 34 -71 3 -88 1
-137 -22 -65 -31 -110 -79 -144 -153 -14 -29 -26 -53 -29 -53 -10 0 -155 41
-201 56 -109 37 -240 114 -321 188 -33 30 -40 42 -31 52 19 23 37 16 112 -45
142 -116 245 -154 300 -111 16 12 27 31 27 45 0 30 25 55 56 55 13 0 24 4 24
8 0 4 14 16 30 26 28 16 30 21 28 69 l-3 52 67 -3 c86 -5 94 7 79 109 l-11 69
65 128 c81 158 97 227 71 315 -17 58 -82 146 -96 130 -4 -4 -12 -28 -19 -53
-7 -25 -30 -82 -52 -127 -88 -183 -264 -296 -559 -357 -41 -8 -118 -26 -170
-40 -91 -24 -117 -25 -105 -6 8 13 181 65 280 84 97 20 134 31 204 63 157 70
267 186 329 344 30 77 58 197 48 207 -4 3 -26 -4 -50 -16 -90 -45 -208 -75
-411 -102 -49 -7 -130 -20 -180 -30 -49 -9 -92 -15 -94 -13 -8 6 64 75 124
118 33 23 92 55 130 71 67 28 76 29 230 29 195 0 282 -20 438 -102 188 -99
361 -262 523 -494 31 -43 60 -79 65 -79 5 0 9 121 9 290 l0 290 -33 14 c-32
13 -181 58 -257 77 -62 16 -191 39 -330 59 -177 26 -490 26 -630 0z m-256
-184 c-33 -30 -72 -72 -87 -94 -20 -28 -42 -45 -75 -57 -26 -10 -69 -31 -95
-48 -26 -16 -50 -28 -52 -25 -8 7 117 132 175 175 65 48 159 102 179 103 8 0
-12 -24 -45 -54z m-94 -364 c0 -10 -50 -35 -57 -28 -3 2 8 11 24 20 34 18 33
18 33 8z m-339 -83 c-12 -34 -15 -191 -5 -202 4 -3 30 24 59 61 56 71 165 172
165 152 0 -7 -24 -36 -54 -65 -69 -66 -116 -139 -151 -235 -26 -68 -28 -87
-28 -210 -1 -218 33 -282 284 -545 257 -270 324 -390 345 -614 4 -40 2 -76 -3
-86 -9 -16 -13 -14 -29 20 -20 43 -90 134 -162 210 -84 88 -175 195 -171 199
2 2 73 -63 157 -145 84 -82 158 -149 164 -149 19 0 1 77 -35 153 -52 110 -144
225 -328 412 -167 170 -199 213 -233 317 -33 96 -46 183 -46 294 0 63 -4 114
-9 114 -5 0 -19 -26 -30 -57 l-21 -58 5 58 c8 90 54 253 100 355 29 64 46 78
26 21z m249 -213 c0 -2 -17 -14 -37 -27 -21 -12 -48 -32 -61 -43 -14 -13 -21
-15 -17 -6 12 30 115 97 115 76z m215 -331 c116 -102 296 -193 446 -225 26 -5
58 -14 72 -19 25 -10 26 -11 10 -41 -8 -17 -26 -35 -39 -40 -26 -10 -29 -21
-15 -49 6 -10 6 -23 1 -31 -5 -9 -2 -22 11 -38 12 -15 16 -29 10 -36 -4 -6
-11 -30 -15 -54 -6 -40 -4 -46 24 -72 17 -16 49 -33 72 -37 54 -11 59 -28 9
-30 -76 -3 -137 -56 -199 -171 -29 -53 -31 -55 -32 -27 0 47 -37 170 -72 238
-38 77 -71 124 -174 252 -98 122 -137 178 -158 229 -23 54 -21 186 3 186 3 0
24 -16 46 -35z m1293 -298 c7 -8 11 -65 10 -146 0 -106 -4 -142 -18 -175 -10
-22 -26 -74 -36 -114 l-17 -73 -101 -93 c-83 -77 -108 -95 -142 -100 -25 -5
-44 -3 -48 3 -8 13 53 72 121 117 80 53 86 116 11 122 -28 2 -43 -4 -79 -34
-53 -45 -131 -81 -264 -124 -175 -57 -268 -112 -317 -189 -36 -57 -37 -28 -1
45 26 54 79 106 139 137 17 9 73 28 125 42 135 38 258 105 348 190 111 105
186 238 195 345 2 30 4 56 5 58 4 8 60 0 69 -11z m-1833 -422 c50 -104 121
-176 282 -286 75 -52 169 -126 208 -164 141 -141 199 -325 164 -521 -15 -88
-18 -94 -37 -87 -37 14 -124 72 -179 118 -174 147 -306 358 -393 630 -24 74
-90 356 -90 382 0 14 14 -9 45 -72z m1830 -297 c-33 -447 -244 -740 -593 -824
-47 -11 -112 -16 -217 -16 -129 0 -164 4 -249 26 -115 30 -132 41 -90 56 106
39 204 117 325 262 157 188 185 210 294 233 122 24 211 55 277 95 69 42 163
132 215 208 20 28 38 52 41 52 2 0 1 -42 -3 -92z"/>
</g>
</svg>
